<svg width="52" height="24" viewBox="0 0 52 24" fill="none" xmlns="http://www.w3.org/2000/svg">
<rect width="52" height="24" fill="white"/>
<path d="M18.9 0C15.54 4.07198 9 4.01028 4.86 0L0 4.99743C3.34638 7.89067 5.34445 9.00318 9.54 9.80977L7.32 12.0308L0.48 19.0026L5.1 24C8.46 19.928 15 19.9897 19.14 24L24 19.0026C20.6536 16.1093 18.6556 14.9968 14.46 14.1902L16.68 12.0308L23.52 4.99743L18.9 0Z" fill="#46319C"/>
<path d="M28.01 15.1C27.63 15.1 27.28 15.03 26.96 14.89C26.6467 14.7433 26.37 14.5433 26.13 14.29C25.8967 14.0367 25.7133 13.7467 25.58 13.42C25.4533 13.0933 25.39 12.7467 25.39 12.38C25.39 11.8867 25.5 11.4367 25.72 11.03C25.94 10.6233 26.2467 10.3 26.64 10.06C27.0333 9.82 27.4867 9.7 28 9.7C28.4867 9.7 28.9167 9.81333 29.29 10.04C29.6633 10.26 29.94 10.56 30.12 10.94L29.46 11.15C29.3133 10.8833 29.1067 10.6767 28.84 10.53C28.58 10.3767 28.29 10.3 27.97 10.3C27.6233 10.3 27.3067 10.39 27.02 10.57C26.7333 10.75 26.5033 10.9967 26.33 11.31C26.1633 11.6233 26.08 11.98 26.08 12.38C26.08 12.7733 26.1667 13.13 26.34 13.45C26.5133 13.77 26.7433 14.0267 27.03 14.22C27.3167 14.4067 27.6333 14.5 27.98 14.5C28.2067 14.5 28.4233 14.46 28.63 14.38C28.8433 14.3 29.0267 14.1933 29.18 14.06C29.34 13.92 29.4467 13.77 29.5 13.61L30.17 13.81C30.0767 14.0567 29.92 14.28 29.7 14.48C29.4867 14.6733 29.2333 14.8267 28.94 14.94C28.6533 15.0467 28.3433 15.1 28.01 15.1ZM33.4095 15.1C33.0361 15.1 32.6895 15.03 32.3695 14.89C32.0561 14.7433 31.7828 14.5467 31.5495 14.3C31.3228 14.0467 31.1461 13.76 31.0195 13.44C30.8928 13.1133 30.8295 12.77 30.8295 12.41C30.8295 12.0367 30.8928 11.69 31.0195 11.37C31.1461 11.0433 31.3261 10.7567 31.5595 10.51C31.7928 10.2567 32.0661 10.06 32.3795 9.92C32.6995 9.77333 33.0461 9.7 33.4195 9.7C33.7928 9.7 34.1361 9.77333 34.4495 9.92C34.7628 10.06 35.0361 10.2567 35.2695 10.51C35.5028 10.7567 35.6828 11.0433 35.8095 11.37C35.9361 11.69 35.9995 12.0367 35.9995 12.41C35.9995 12.77 35.9361 13.1133 35.8095 13.44C35.6828 13.76 35.5028 14.0467 35.2695 14.3C35.0428 14.5467 34.7695 14.7433 34.4495 14.89C34.1361 15.03 33.7895 15.1 33.4095 15.1ZM31.5195 12.42C31.5195 12.8067 31.6028 13.16 31.7695 13.48C31.9428 13.7933 32.1728 14.0433 32.4595 14.23C32.7461 14.41 33.0628 14.5 33.4095 14.5C33.7561 14.5 34.0728 14.4067 34.3595 14.22C34.6461 14.0333 34.8761 13.78 35.0495 13.46C35.2228 13.1333 35.3095 12.78 35.3095 12.4C35.3095 12.0133 35.2228 11.66 35.0495 11.34C34.8761 11.02 34.6461 10.7667 34.3595 10.58C34.0728 10.3933 33.7561 10.3 33.4095 10.3C33.0628 10.3 32.7461 10.3967 32.4595 10.59C32.1795 10.7833 31.9528 11.04 31.7795 11.36C31.6061 11.6733 31.5195 12.0267 31.5195 12.42ZM36.7867 12.41C36.7867 11.9167 36.8867 11.4667 37.0867 11.06C37.2934 10.6467 37.5767 10.3167 37.9367 10.07C38.2967 9.82333 38.7067 9.7 39.1667 9.7C39.6001 9.7 39.9867 9.81667 40.3267 10.05C40.6734 10.2767 40.9434 10.5533 41.1367 10.88V7.7H41.8167V14.18C41.8167 14.2733 41.8367 14.3433 41.8767 14.39C41.9167 14.43 41.9767 14.4533 42.0567 14.46V15C41.9234 15.02 41.8201 15.0267 41.7467 15.02C41.6067 15.0133 41.4834 14.9567 41.3767 14.85C41.2701 14.7433 41.2167 14.6267 41.2167 14.5V13.99C41.0101 14.33 40.7301 14.6 40.3767 14.8C40.0234 15 39.6567 15.1 39.2767 15.1C38.9167 15.1 38.5834 15.0267 38.2767 14.88C37.9767 14.7333 37.7134 14.5333 37.4867 14.28C37.2667 14.0267 37.0934 13.74 36.9667 13.42C36.8467 13.0933 36.7867 12.7567 36.7867 12.41ZM41.1367 13.21V11.6C41.0501 11.36 40.9101 11.1433 40.7167 10.95C40.5234 10.75 40.3034 10.5933 40.0567 10.48C39.8167 10.36 39.5767 10.3 39.3367 10.3C39.0567 10.3 38.8034 10.36 38.5767 10.48C38.3501 10.5933 38.1534 10.75 37.9867 10.95C37.8267 11.15 37.7034 11.3767 37.6167 11.63C37.5301 11.8833 37.4867 12.1433 37.4867 12.41C37.4867 12.69 37.5334 12.9567 37.6267 13.21C37.7267 13.4633 37.8667 13.69 38.0467 13.89C38.2267 14.0833 38.4334 14.2333 38.6667 14.34C38.9001 14.4467 39.1534 14.5 39.4267 14.5C39.6001 14.5 39.7801 14.4667 39.9667 14.4C40.1534 14.3333 40.3301 14.2433 40.4967 14.13C40.6701 14.01 40.8134 13.87 40.9267 13.71C41.0401 13.55 41.1101 13.3833 41.1367 13.21ZM45.6074 15.1C45.2341 15.1 44.8874 15.03 44.5674 14.89C44.2474 14.7433 43.9708 14.5467 43.7374 14.3C43.5041 14.0467 43.3208 13.7567 43.1874 13.43C43.0608 13.1033 42.9974 12.7533 42.9974 12.38C42.9974 11.8933 43.1074 11.4467 43.3274 11.04C43.5541 10.6333 43.8641 10.31 44.2574 10.07C44.6508 9.82333 45.0974 9.7 45.5974 9.7C46.1108 9.7 46.5574 9.82333 46.9374 10.07C47.3241 10.3167 47.6274 10.6433 47.8474 11.05C48.0674 11.45 48.1774 11.89 48.1774 12.37C48.1774 12.4233 48.1774 12.4767 48.1774 12.53C48.1774 12.5767 48.1741 12.6133 48.1674 12.64H43.7074C43.7408 13.0133 43.8441 13.3467 44.0174 13.64C44.1974 13.9267 44.4274 14.1567 44.7074 14.33C44.9941 14.4967 45.3041 14.58 45.6374 14.58C45.9774 14.58 46.2974 14.4933 46.5974 14.32C46.9041 14.1467 47.1174 13.92 47.2374 13.64L47.8274 13.8C47.7208 14.0467 47.5574 14.27 47.3374 14.47C47.1174 14.67 46.8574 14.8267 46.5574 14.94C46.2641 15.0467 45.9474 15.1 45.6074 15.1ZM43.6874 12.15H47.5374C47.5108 11.77 47.4074 11.4367 47.2274 11.15C47.0541 10.8633 46.8241 10.64 46.5374 10.48C46.2574 10.3133 45.9474 10.23 45.6074 10.23C45.2674 10.23 44.9574 10.3133 44.6774 10.48C44.3974 10.64 44.1674 10.8667 43.9874 11.16C43.8141 11.4467 43.7141 11.7767 43.6874 12.15ZM51.8266 10.39C51.3732 10.4033 50.9732 10.53 50.6266 10.77C50.2866 11.01 50.0466 11.34 49.9066 11.76V15H49.2266V9.79H49.8666V11.04C50.0466 10.6733 50.2832 10.3767 50.5766 10.15C50.8766 9.92333 51.1932 9.79667 51.5266 9.77C51.5932 9.76333 51.6499 9.76 51.6966 9.76C51.7499 9.76 51.7932 9.76333 51.8266 9.77V10.39Z" fill="#46319C"/>
</svg>
